<?xml version="1.0" encoding="UTF-8"?>
<svg width="24px" height="22px" viewBox="0 0 24 22" version="1.1" xmlns="http://www.w3.org/2000/svg" xmlns:xlink="http://www.w3.org/1999/xlink">
    <!-- Generator: Sketch 58 (84663) - https://sketch.com -->
    <title>icons8-folder copy</title>
    <desc>Created with Sketch.</desc>
    <g id="Page-1" stroke="none" stroke-width="1" fill="none" fill-rule="evenodd">
        <g id="Concrete---Add-Panel---Stacks" transform="translate(-39.000000, -375.000000)" fill="#6A6F7B" fill-rule="nonzero">
            <g id="Group-3" transform="translate(0.000000, 49.000000)">
                <g id="icons8-folder-copy" transform="translate(39.000000, 326.000000)">
                    <path d="M1.56521739,0 C0.706972278,0 0,0.706972278 0,1.56521739 L0,6.26086957 L0,7.30434783 L0,20.3478261 C0,21.2060713 0.706972278,21.9130435 1.56521739,21.9130435 L22.4347826,21.9130435 C23.2930278,21.9130435 24,21.2060713 24,20.3478261 L24,7.82608696 L24,6.26086957 L24,3.65217391 C24,2.7939288 23.2930278,2.08695652 22.4347826,2.08695652 L8.34782609,2.08695652 C8.39299304,2.08695652 8.33164696,2.08714643 8.20414383,1.94021739 C8.07664017,1.79328835 7.91969687,1.54953454 7.75577426,1.28804348 C7.59185217,1.02655242 7.42005757,0.747542557 7.20346487,0.502377704 C6.98687165,0.257212904 6.68804557,0 6.26086957,0 L1.56521739,0 Z M1.56521739,1.04347826 L6.26086957,1.04347826 C6.22917391,1.04347826 6.2927687,1.04713565 6.42187513,1.19327447 C6.55098313,1.33941397 6.70812052,1.58214323 6.87126365,1.8423913 C7.03440678,2.10263937 7.20335426,2.3806247 7.41542139,2.625 C7.627488,2.8693753 7.91944017,3.13043478 8.34782609,3.13043478 L22.4347826,3.13043478 C22.7295809,3.13043478 22.9565217,3.35737565 22.9565217,3.65217391 L22.9565217,4.79347826 C22.7922303,4.73422957 22.6183529,4.69565217 22.4347826,4.69565217 L1.56521739,4.69565217 C1.38164739,4.69565217 1.20776948,4.73422957 1.04347826,4.79347826 L1.04347826,1.56521739 C1.04347826,1.27041903 1.27041903,1.04347826 1.56521739,1.04347826 Z M1.56521739,5.73913043 L22.4347826,5.73913043 C22.7295809,5.73913043 22.9565217,5.9660713 22.9565217,6.26086957 L22.9565217,7.82608696 L22.9565217,20.3478261 C22.9565217,20.6426243 22.7295809,20.8695652 22.4347826,20.8695652 L1.56521739,20.8695652 C1.27041903,20.8695652 1.04347826,20.6426243 1.04347826,20.3478261 L1.04347826,7.30434783 L1.04347826,6.26086957 C1.04347826,5.9660713 1.27041903,5.73913043 1.56521739,5.73913043 Z" id="Shape"></path>
                </g>
            </g>
        </g>
    </g>
</svg>