<?xml version="1.0" encoding="UTF-8"?>
<svg width="24px" height="20px" viewBox="0 0 24 20" version="1.1" xmlns="http://www.w3.org/2000/svg" xmlns:xlink="http://www.w3.org/1999/xlink">
    <!-- Generator: Sketch 58 (84663) - https://sketch.com -->
    <title>Shape</title>
    <desc>Created with Sketch.</desc>
    <g id="Page-1" stroke="none" stroke-width="1" fill="none" fill-rule="evenodd">
        <g id="Concrete---Add-Panel---Stacks" transform="translate(-39.000000, -225.000000)" fill="#6A6F7B" fill-rule="nonzero">
            <g id="Group-3" transform="translate(0.000000, 49.000000)">
                <g id="icons8-stack" transform="translate(39.000000, 176.000000)">
                    <path d="M0,0 L0,6 L24,6 L24,0 L0,0 Z M19,2 L22,2 L22,4 L19,4 L19,2 Z M0,7 L0,13 L24,13 L24,7 L0,7 Z M19,9 L22,9 L22,11 L19,11 L19,9 Z M0,14 L0,20 L24,20 L24,14 L0,14 Z M19,16 L22,16 L22,18 L19,18 L19,16 Z" id="Shape"></path>
                </g>
            </g>
        </g>
    </g>
</svg>